<svg width="106" height="106" viewBox="0 0 106 106" fill="none" xmlns="http://www.w3.org/2000/svg">
<g clip-path="url(#clip0)">
<g filter="url(#filter0_d)">
<path d="M42.1724 38.4C40.2192 38.4 38.3882 38.7594 36.6792 39.4781C34.9702 40.1969 33.4688 41.1672 32.1748 42.3891C30.8809 43.6109 29.8677 45.0724 29.1353 46.7734C28.4028 48.4745 28.0244 50.2833 28 52.2C28 54.1167 28.3662 55.9016 29.0986 57.5547C29.8311 59.2078 30.832 60.6693 32.1016 61.9391C33.3711 63.2089 34.8726 64.2031 36.606 64.9219C38.3394 65.6406 40.1582 66 42.0625 66H84.25C86.8379 66 89.2671 65.5208 91.5376 64.5625C93.8081 63.6042 95.7979 62.2984 97.5068 60.6453C99.2158 58.9922 100.559 57.0396 101.535 54.7875C102.512 52.5354 103 50.1396 103 47.6C103 45.0604 102.512 42.6766 101.535 40.4484C100.559 38.2203 99.228 36.2677 97.5435 34.5906C95.8589 32.9135 93.8691 31.5958 91.5742 30.6375C89.2793 29.6792 86.8379 29.2 84.25 29.2C83.127 29.2 81.9917 29.3078 80.8442 29.5234C79.8677 28.038 78.7446 26.7083 77.4751 25.5344C76.2056 24.3604 74.8018 23.3542 73.2637 22.5156C71.7256 21.6771 70.1143 21.0542 68.4297 20.6469C66.7451 20.2396 64.9873 20.024 63.1562 20C60.4463 20 57.895 20.4672 55.5024 21.4016C53.1099 22.3359 50.9736 23.6177 49.0938 25.2469C47.2139 26.876 45.688 28.8286 44.5161 31.1047C43.3442 33.3807 42.563 35.8125 42.1724 38.4Z" fill="url(#paint0_linear)" fill-opacity="0.65"/>
</g>
<path d="M41.6055 42.2C39.7305 42.2 37.9727 42.5359 36.332 43.2078C34.6914 43.8797 33.25 44.7867 32.0078 45.9289C30.7656 47.0711 29.793 48.4372 29.0898 50.0273C28.3867 51.6174 28.0234 53.3083 28 55.1C28 56.8917 28.3516 58.5602 29.0547 60.1055C29.7578 61.6508 30.7187 63.0169 31.9375 64.2039C33.1562 65.3909 34.5976 66.3203 36.2617 66.9922C37.9258 67.6641 39.6719 68 41.5 68H82C84.4844 68 86.8164 67.5521 88.9961 66.6562C91.1758 65.7604 93.0859 64.5398 94.7266 62.9945C96.3672 61.4492 97.6562 59.624 98.5937 57.5187C99.5312 55.4135 100 53.174 100 50.8C100 48.426 99.5312 46.1977 98.5937 44.1148C97.6562 42.032 96.3789 40.2068 94.7617 38.6391C93.1445 37.0714 91.2344 35.8396 89.0312 34.9438C86.8281 34.0479 84.4844 33.6 82 33.6C80.9219 33.6 79.832 33.7008 78.7305 33.9023C77.793 32.5138 76.7148 31.2708 75.4961 30.1734C74.2773 29.076 72.9297 28.1354 71.4531 27.3516C69.9766 26.5677 68.4297 25.9854 66.8125 25.6047C65.1953 25.224 63.5078 25.0224 61.75 25C59.1484 25 56.6992 25.4367 54.4023 26.3102C52.1055 27.1836 50.0547 28.3818 48.25 29.9047C46.4453 31.4276 44.9805 33.2529 43.8555 35.3805C42.7305 37.5081 41.9805 39.7812 41.6055 42.2Z" fill="#A4C0D2"/>
<g filter="url(#filter1_dd)">
<path d="M21.1406 50C18.6406 50 16.2969 50.4688 14.1094 51.4062C11.9219 52.3438 10 53.6094 8.34375 55.2031C6.6875 56.7969 5.39062 58.7031 4.45312 60.9219C3.51562 63.1406 3.03125 65.5 3 68C3 70.5 3.46875 72.8281 4.40625 74.9844C5.34375 77.1406 6.625 79.0469 8.25 80.7031C9.875 82.3594 11.7969 83.6562 14.0156 84.5938C16.2344 85.5312 18.5625 86 21 86H75C78.3125 86 81.4219 85.375 84.3281 84.125C87.2344 82.875 89.7812 81.1719 91.9688 79.0156C94.1562 76.8594 95.875 74.3125 97.125 71.375C98.375 68.4375 99 65.3125 99 62C99 58.6875 98.375 55.5781 97.125 52.6719C95.875 49.7656 94.1719 47.2188 92.0156 45.0312C89.8594 42.8438 87.3125 41.125 84.375 39.875C81.4375 38.625 78.3125 38 75 38C73.5625 38 72.1094 38.1406 70.6406 38.4219C69.3906 36.4844 67.9531 34.75 66.3281 33.2188C64.7031 31.6875 62.9062 30.375 60.9375 29.2812C58.9688 28.1875 56.9062 27.375 54.75 26.8438C52.5938 26.3125 50.3438 26.0312 48 26C44.5312 26 41.2656 26.6094 38.2031 27.8281C35.1406 29.0469 32.4062 30.7188 30 32.8438C27.5938 34.9688 25.6406 37.5156 24.1406 40.4844C22.6406 43.4531 21.6406 46.625 21.1406 50Z" fill="url(#paint1_linear)"/>
</g>
<path d="M98.9128 60.6131C98.9128 71.9836 87.4845 78.9412 76.1694 78.9412C64.8543 78.9412 55.6816 69.7236 55.6816 58.353C55.6816 46.9824 64.8543 37.7648 76.1694 37.7648C87.4845 37.7648 98.9128 49.2425 98.9128 60.6131Z" fill="url(#paint2_linear)"/>
<path d="M70.177 44.7274C65.2915 44.7274 60.937 46.5747 57.5384 49.5087C57.5384 49.5087 57.4322 49.5087 57.4322 49.6174C59.4501 45.2708 62.955 41.6848 67.2032 39.6201C63.5922 35.3822 58.3881 32.7742 52.4405 32.7742C41.7136 32.7742 33.1108 41.6848 33.1108 52.4427C33.1108 54.1814 33.3232 55.92 33.7481 57.55C32.2612 57.0067 30.6681 56.6807 28.9687 56.6807C21.5343 56.6807 15.4805 62.8746 15.4805 70.3726C15.4805 77.8705 21.5343 84.0645 28.9687 84.0645C29.075 84.0645 29.1812 84.0645 29.1812 84.0645H69.7522C69.8584 84.0645 69.9646 84.0645 70.0708 84.0645C80.7977 84.0645 89.4005 75.1539 89.4005 64.396C89.4005 53.638 80.7977 44.7274 70.177 44.7274Z" fill="url(#paint3_linear)"/>
</g>
<defs>
<filter id="filter0_d" x="28" y="18.5" width="78.5" height="49" filterUnits="userSpaceOnUse" color-interpolation-filters="sRGB">
<feFlood flood-opacity="0" result="BackgroundImageFix"/>
<feColorMatrix in="SourceAlpha" type="matrix" values="0 0 0 0 0 0 0 0 0 0 0 0 0 0 0 0 0 0 127 0"/>
<feOffset dx="2"/>
<feGaussianBlur stdDeviation="0.75"/>
<feColorMatrix type="matrix" values="0 0 0 0 0 0 0 0 0 0 0 0 0 0 0 0 0 0 0.2 0"/>
<feBlend mode="normal" in2="BackgroundImageFix" result="effect1_dropShadow"/>
<feBlend mode="normal" in="SourceGraphic" in2="effect1_dropShadow" result="shape"/>
</filter>
<filter id="filter1_dd" x="-1" y="23" width="104" height="68" filterUnits="userSpaceOnUse" color-interpolation-filters="sRGB">
<feFlood flood-opacity="0" result="BackgroundImageFix"/>
<feColorMatrix in="SourceAlpha" type="matrix" values="0 0 0 0 0 0 0 0 0 0 0 0 0 0 0 0 0 0 127 0"/>
<feOffset dx="2"/>
<feGaussianBlur stdDeviation="1"/>
<feColorMatrix type="matrix" values="0 0 0 0 0 0 0 0 0 0 0 0 0 0 0 0 0 0 0.2 0"/>
<feBlend mode="normal" in2="BackgroundImageFix" result="effect1_dropShadow"/>
<feColorMatrix in="SourceAlpha" type="matrix" values="0 0 0 0 0 0 0 0 0 0 0 0 0 0 0 0 0 0 127 0"/>
<feOffset dy="1"/>
<feGaussianBlur stdDeviation="2"/>
<feColorMatrix type="matrix" values="0 0 0 0 0 0 0 0 0 0 0 0 0 0 0 0 0 0 0.15 0"/>
<feBlend mode="normal" in2="effect1_dropShadow" result="effect2_dropShadow"/>
<feBlend mode="normal" in="SourceGraphic" in2="effect2_dropShadow" result="shape"/>
</filter>
<linearGradient id="paint0_linear" x1="28" y1="20" x2="102.2" y2="67.2568" gradientUnits="userSpaceOnUse">
<stop offset="0.21875" stop-color="white"/>
<stop offset="0.645833" stop-color="#F7FCFF"/>
</linearGradient>
<linearGradient id="paint1_linear" x1="3" y1="26" x2="88.7791" y2="100.396" gradientUnits="userSpaceOnUse">
<stop stop-color="white"/>
<stop offset="0.677083" stop-color="#D9E7EF"/>
<stop offset="0.96875" stop-color="#B1D1E4"/>
</linearGradient>
<linearGradient id="paint2_linear" x1="69.1451" y1="38.353" x2="74.4626" y2="61.8713" gradientUnits="userSpaceOnUse">
<stop offset="0.265243" stop-color="#F4F8FA"/>
<stop offset="0.899425" stop-color="#F4F8FA" stop-opacity="0"/>
</linearGradient>
<linearGradient id="paint3_linear" x1="29.6778" y1="56.1883" x2="84.0305" y2="80.1123" gradientUnits="userSpaceOnUse">
<stop stop-color="#C9E2F0"/>
<stop offset="0.410663" stop-color="#DEEBF2"/>
<stop offset="1" stop-color="#DEEBF2"/>
<stop offset="1" stop-color="#BDE1F6"/>
</linearGradient>
<clipPath id="clip0">
<rect width="106" height="106" fill="white"/>
</clipPath>
</defs>
</svg>
